<svg xmlns="http://www.w3.org/2000/svg" xmlns:xlink="http://www.w3.org/1999/xlink" viewBox="0 0 184.41 169.68"><defs><linearGradient id="linear-gradient" x1="7.17" y1="85.16" x2="166.02" y2="85.16" gradientUnits="userSpaceOnUse"><stop offset="0" stop-color="#33b0dd"/><stop offset="1" stop-color="#2f34ff"/></linearGradient><linearGradient id="linear-gradient-2" x1="26.42" y1="198.98" x2="178.84" y2="198.98" gradientTransform="matrix(0.99, 0.12, -0.12, 0.99, 11.68, -122.83)" gradientUnits="userSpaceOnUse"><stop offset="0" stop-color="#2f34ff"/><stop offset="1" stop-color="#33b0dd"/></linearGradient><linearGradient id="linear-gradient-3" x1="48.27" y1="89.46" x2="168.84" y2="89.46" gradientTransform="matrix(1, 0, 0, 1, 0, 0)" xlink:href="#linear-gradient-2"/><linearGradient id="linear-gradient-4" x1="83.55" y1="12.77" x2="139.39" y2="12.77" gradientTransform="matrix(1, 0, 0, 1, 0, 0)" xlink:href="#linear-gradient-2"/><linearGradient id="linear-gradient-5" x1="5.29" y1="84.84" x2="20.9" y2="84.84" gradientTransform="matrix(1, 0, 0, 1, 0, 0)" xlink:href="#linear-gradient-2"/><linearGradient id="linear-gradient-6" x1="154.23" y1="107.21" x2="173.09" y2="107.21" gradientTransform="matrix(1, 0, 0, 1, 0, 0)" xlink:href="#linear-gradient-2"/></defs><g style="isolation:isolate"><g id="Layer_2" data-name="Layer 2"><g id="OBJECTS"><path d="M29.16,52.7c1.11,6.91-2.53,13.71-6.9,19.18S12.62,82.21,9.49,88.47,6,103.13,11,108.05c4.21,4.15,10.82,4.56,16.69,3.83s11.78-2.35,17.6-1.33c9.41,1.65,16.34,9.81,20.62,18.35s6.78,18,11.88,26c4,6.31,10.24,12,17.7,12.21,6.92.23,13.19-4.25,17.69-9.53S121,146.13,125.61,141c8.7-9.61,21.45-14.81,30.13-24.44,13.76-15.26,13.7-41-.13-56.21-7-7.68-16.64-12.57-23.48-20.37-5.52-6.29-8.9-14.13-13.42-21.17s-10.83-13.7-19-15.27c-9.07-1.74-18.07,3.1-25.49,8.59a123,123,0,0,0-37,44.24C34.87,54.54,31.48,54.53,29.16,52.7Z" opacity="0.5" fill="url(#linear-gradient)"/><path d="M161.86,69.71a38.52,38.52,0,0,0-6.25-9.37c-7-7.68-16.64-12.57-23.48-20.37-4-4.62-7-10.08-10-15.44-8.77-.28-17.67.46-26.47.53-8.39.06-19.27-3.07-30.4-5.67a123.21,123.21,0,0,0-28.07,37c-2.32-1.82-5.71-1.83-8-3.66,1.11,6.91-2.53,13.71-6.9,19.18-.72.9-1.47,1.79-2.23,2.67,4.78,12.51,9.69,25,6.54,37.45q.54,0,1.08-.12c5.87-.73,11.78-2.35,17.6-1.33,9.41,1.65,16.34,9.81,20.62,18.35s6.78,18,11.88,26c.58.92,1.22,1.83,1.9,2.71a240,240,0,0,0,33.17.32c.11-.11.21-.23.32-.35,4.49-5.27,7.82-11.48,12.47-16.62,8.07-8.9,19.6-14,28.16-22.39-.93-9.84-2.82-20.09-.49-29.45C155,82.32,158.93,76.12,161.86,69.71Z" opacity="0.2"/><path d="M103.22,26.31c14.35,1.66,29.23,1.52,42.6,7s25.05,18.81,22.72,33.07c-1.87,11.43-11.82,19.78-16,30.58-6.71,17.48,2,40.23-10.54,54.15-8.08,9-21.64,10-33.71,9.44A239.66,239.66,0,0,1,35.93,145.9c-9.33-3.45-19.82-9.32-20.57-19.23-.6-7.93,5.43-14.6,8.45-22,9.68-23.62-12.48-51.34-3.29-75.15C35.69-9.77,78.57,23.45,103.22,26.31Z" fill="url(#linear-gradient-2)"/><path d="M145.82,33.32c-13.37-5.49-28.25-5.35-42.6-7-7.45-.86-16.56-4.49-26.06-8.06a24.64,24.64,0,0,0,5.62,14.86c6.1,7.21,15.64,10.26,24.07,14.53s16.88,11.49,16.87,20.94c0,8.9-7.55,15.92-15.19,20.5S92.22,97.32,87,104.54c-6.9,9.58-6,23.06-12.44,32.93-5.6,8.53-16,12.64-26.3,12.62a239.68,239.68,0,0,0,60,10.47c12.07.54,25.63-.47,33.71-9.44,12.53-13.92,3.83-36.67,10.54-54.15,4.16-10.8,14.11-19.15,16-30.58C170.87,52.13,159.19,38.8,145.82,33.32Z" opacity="0.3" fill="url(#linear-gradient-3)" style="mix-blend-mode:screen"/><path d="M103.78,16.55c3.94,1.61,7.58,3.87,11.41,5.74s8,3.35,12.23,3.25,8.66-2.05,10.81-5.73,1.3-9.1-2.36-11.28c-4.27-2.54-9.63,0-14.59.32-4.36.27-8.65-1.26-12.57-3.21-3.16-1.56-6.2-3.42-9.53-4.57S92.1-.51,88.84.85s-5.77,4.82-5.22,8.31C84.82,16.67,98.66,14.46,103.78,16.55Z" fill="url(#linear-gradient-4)"/><path d="M15.74,78.21C17.63,81.67,19.9,85,20.67,88.9s-.43,8.49-3.94,10.27a7.79,7.79,0,0,1-9-2,10.89,10.89,0,0,1-2.25-9.26C6.15,84.58,8,81.5,8.14,78.1c.07-2.34-1.79-8.43,2.27-8.28C13.71,70,14.5,75.94,15.74,78.21Z" fill="url(#linear-gradient-5)"/><path d="M155.27,110.63c2.55-6,9-10,10.57-16.34a23.56,23.56,0,0,1,.81-3.44,3.52,3.52,0,0,1,2.46-2.34,3.26,3.26,0,0,1,3.17,1.79,8.44,8.44,0,0,1,.79,3.76,44.41,44.41,0,0,1-7.55,26.14c-2.53,3.78-5.83,8.85-9.26,3.25A14.52,14.52,0,0,1,155.27,110.63Z" fill="url(#linear-gradient-6)"/><path d="M180.65,73.63h0a5.11,5.11,0,0,1-3.77,3.76h0a5.11,5.11,0,0,1,3.77,3.77h0a5.1,5.1,0,0,1,3.76-3.77h0a5.1,5.1,0,0,1-3.76-3.76Z" fill="#fff"/><path d="M60.78,162.15h0A5.11,5.11,0,0,1,57,165.92h0a5.1,5.1,0,0,1,3.76,3.76h0a5.1,5.1,0,0,1,3.76-3.76h0a5.11,5.11,0,0,1-3.76-3.77Z" fill="#fff"/><path d="M3.76,107.21h0A5.1,5.1,0,0,1,0,111H0a5.11,5.11,0,0,1,3.76,3.77h0A5.14,5.14,0,0,1,7.53,111h0a5.13,5.13,0,0,1-3.77-3.76Z" fill="#fff"/><path d="M7.53,35.52h0a5.11,5.11,0,0,1-3.77,3.76h0a5.13,5.13,0,0,1,3.77,3.77h0a5.11,5.11,0,0,1,3.76-3.77h0a5.1,5.1,0,0,1-3.76-3.76Z" fill="#fff"/><path d="M0,68.5A1.87,1.87,0,1,0,1.9,66.63,1.87,1.87,0,0,0,0,68.5Z" fill="#fff"/><circle cx="149.57" cy="25.51" r="4.24" fill="#fff"/><circle cx="65.37" cy="5.27" r="0.83" fill="#fff"/></g></g></g></svg>