<svg xmlns="http://www.w3.org/2000/svg" xmlns:xlink="http://www.w3.org/1999/xlink" viewBox="0 0 190.24 188.13"><defs><linearGradient id="linear-gradient" x1="28.9" y1="101.14" x2="163.12" y2="101.14" gradientUnits="userSpaceOnUse"><stop offset="0" stop-color="#5454ff"/><stop offset="1" stop-color="#2ba4ff"/></linearGradient><linearGradient id="linear-gradient-2" x1="23.41" y1="154.25" x2="149.98" y2="27.68" gradientUnits="userSpaceOnUse"><stop offset="0" stop-color="#2ba4ff"/><stop offset="1" stop-color="#5454ff"/></linearGradient><linearGradient id="linear-gradient-3" x1="2.46" y1="125.62" x2="179.37" y2="125.62" xlink:href="#linear-gradient-2"/><linearGradient id="linear-gradient-4" x1="73.28" y1="21.59" x2="137.17" y2="21.59" xlink:href="#linear-gradient-2"/><linearGradient id="linear-gradient-5" x1="140.26" y1="144.51" x2="181.94" y2="144.51" xlink:href="#linear-gradient-2"/><linearGradient id="linear-gradient-6" x1="20.26" y1="169.05" x2="56.52" y2="169.05" xlink:href="#linear-gradient-2"/></defs><g style="isolation:isolate"><g id="Layer_2" data-name="Layer 2"><g id="OBJECTS"><path d="M77.66,22.34c8.52-5.67,20-8,29-3.22,6.13,3.26,10.26,9.23,14.15,15l23.68,35c10.86,16.05,22.24,34.77,17.48,53.56-4.32,17.09-20.52,28-35.48,37.34-16.44,10.24-33.34,20.66-52.32,24.52-12.7,2.59-27.33,1.55-36.53-7.57-11.35-11.26-10.08-30-5.18-45.21s12.72-30.16,11.85-46.13c-.45-8.23-3.23-16.28-2.91-24.53.45-11.68,6.8-14,15-19.1S69.42,27.82,77.66,22.34Z" opacity="0.5" fill="url(#linear-gradient)"/><path d="M87.2,180.81c13.86-5,26.72-13,39.32-20.81,5.1-3.17,10.33-6.53,15.2-10.26,3.58-9.56,6.5-19.54,10.66-28.78,2.79-6.2,6.14-12.08,9.37-18C158.8,91,151.55,79.5,144.52,69.1l-19.63-29c-5.15,2-10.34,3.84-15.58,4.35-12.1,1.19-24-4.67-35.43-10.22-2-1-4-1.92-6-2.84-3.54,3.9-7,7.83-11.42,10.6-8.24,5.12-14.59,7.42-15,19.1-.32,8.25,2.46,16.3,2.91,24.53.87,16-6.94,30.91-11.85,46.13-2.88,8.94-4.5,19.1-3.05,28.24,11.12,3.66,23.91,3.31,35.1,7.77C72.42,170.89,79.7,176.51,87.2,180.81Z" opacity="0.2"/><path d="M51.49,17.76c12.14,0,23.27,7.32,33.62,14.62s21.2,15,33.33,15.76c17.42,1.1,36.67-11.88,51.11-.65,11.83,9.19,12,29.9,5.55,44.51s-17.78,25.51-26.4,38.57c-8.16,12.35-13.95,26.66-22.68,38.48s-21.8,21.21-35.11,18.66c-14.07-2.7-23.76-17.44-36.41-25-15-9-34.83-8.51-45.54-23.48-9.76-13.65-7.1-34-1.35-50.41C15.82,65.46,22.71,17.85,51.49,17.76Z" fill="url(#linear-gradient-2)"/><path d="M175.1,92c3.87-8.71,5.35-19.58,3.42-28.89A84.48,84.48,0,0,1,160.3,99.92c-15.61,18-40,28.58-63.73,26.14-13.73-1.41-27.09-6.9-40.87-6-9.29.64-19,4.14-27.61.71-10-3.94-14.45-15.43-16.58-25.93-.83-4-1.45-8.12-1.9-12.23-.67,2.19-1.33,4.25-2,6.15C1.86,105.18-.8,125.56,9,139.21c10.71,15,30.59,14.51,45.54,23.48,12.65,7.58,22.34,22.32,36.41,25,13.31,2.55,26.37-6.85,35.11-18.66s14.52-26.13,22.68-38.48C157.32,117.51,168.61,106.6,175.1,92Z" opacity="0.3" fill="url(#linear-gradient-3)" style="mix-blend-mode:screen"/><path d="M100.77,34.17c5.53,3,11.53,5.45,17.81,5.64s12.92-2.24,16.51-7.4c2.27-3.26,3-8,.48-11.06-2.1-2.51-5.8-3.09-9-2.6s-6.29,1.84-9.5,2.54a24.11,24.11,0,0,1-21.41-6c-2.14-2.05-3.88-4.49-5.9-6.67a15.82,15.82,0,0,0-7.27-4.93c-2.87-.77-6.29-.06-8.06,2.33C67.47,15.27,94.81,31,100.77,34.17Z" fill="url(#linear-gradient-4)"/><path d="M154.18,142.86c-.85,4.56-2.12,9.26-5.26,12.66-1.81,2-4.14,3.39-6,5.31s-3.23,4.69-2.43,7.24,3.79,4.15,6.54,4a13,13,0,0,0,7.38-3.37c4.35-3.6,7.5-8.41,10.58-13.15q6.18-9.53,12.37-19.05c1.8-2.77,3.64-5.63,4.32-8.86,1.91-9-7.09-13.17-14.07-9.19C158.71,123.52,155.88,133.66,154.18,142.86Z" fill="url(#linear-gradient-5)"/><path d="M44.6,161.08c3.06.41,6.2,1.18,8.63,3.11s4,5.25,3,8.19c-1.1,3.4-5,5.13-8.6,5.16s-7-1.17-10.56-1.71c-3.26-.49-6.63-.41-9.8-1.33s-6.27-3.15-6.9-6.39C18.56,158.85,39.68,160.43,44.6,161.08Z" fill="url(#linear-gradient-6)"/><path d="M105.22,0h0A5.11,5.11,0,0,0,109,3.76h0a5.14,5.14,0,0,0-3.77,3.77h0a5.13,5.13,0,0,0-3.76-3.77h0A5.1,5.1,0,0,0,105.22,0Z" fill="#fff"/><path d="M186.48,85.45h0a5.1,5.1,0,0,0,3.76,3.76h0A5.11,5.11,0,0,0,186.48,93h0a5.11,5.11,0,0,0-3.76-3.77h0a5.1,5.1,0,0,0,3.76-3.76Z" fill="#fff"/><path d="M3.76,149.73h0a5.13,5.13,0,0,0,3.77,3.76h0a5.14,5.14,0,0,0-3.77,3.77h0A5.11,5.11,0,0,0,0,153.49H0a5.1,5.1,0,0,0,3.76-3.76Z" fill="#fff"/><path d="M56.52,1.87h0a5.1,5.1,0,0,0,3.76,3.76h0a5.1,5.1,0,0,0-3.76,3.76h0a5.11,5.11,0,0,0-3.77-3.76h0a5.11,5.11,0,0,0,3.77-3.76Z" fill="#fff"/><circle cx="6.37" cy="54.36" r="4.47" fill="#fff"/><path d="M155.17,31.38a1.87,1.87,0,1,1-1.87-1.87A1.87,1.87,0,0,1,155.17,31.38Z" fill="#fff"/><circle cx="133.35" cy="180.81" r="4.24" fill="#fff"/><circle cx="170.43" cy="33.24" r="0.83" fill="#fff"/></g></g></g></svg>