<svg xmlns="http://www.w3.org/2000/svg" xmlns:xlink="http://www.w3.org/1999/xlink" viewBox="0 0 175.16 172.37"><defs><linearGradient id="linear-gradient" x1="12.31" y1="70.86" x2="165.22" y2="70.86" gradientUnits="userSpaceOnUse"><stop offset="0" stop-color="#4dfffc"/><stop offset="1" stop-color="#02aab0"/></linearGradient><linearGradient id="linear-gradient-2" x1="10.51" y1="93.74" x2="168.3" y2="93.74" gradientUnits="userSpaceOnUse"><stop offset="0" stop-color="#02aab0"/><stop offset="1" stop-color="#4dfffc"/></linearGradient><linearGradient id="linear-gradient-3" x1="85.78" y1="13.68" x2="138.27" y2="13.68" xlink:href="#linear-gradient-2"/><linearGradient id="linear-gradient-4" x1="0" y1="101.28" x2="46.02" y2="101.28" xlink:href="#linear-gradient-2"/><linearGradient id="linear-gradient-5" x1="133.49" y1="128.35" x2="167.47" y2="128.35" xlink:href="#linear-gradient-2"/><linearGradient id="linear-gradient-6" x1="10.51" y1="93.74" x2="123.9" y2="93.74" xlink:href="#linear-gradient-2"/></defs><g style="isolation:isolate"><g id="Layer_2" data-name="Layer 2"><g id="OBJECTS"><path d="M29.38,79.43c-3.67,10-10.69,18.46-14.6,28.36s-3.75,22.93,4.78,29.3c6.29,4.71,15.13,4.23,22.59,1.75s14.25-6.69,21.75-9c11.66-3.63,24.21-2.5,36.34-1s24.48,3.23,36.45.78S160.37,119.5,164,107.85c3.39-10.87-.83-22.73-7-32.29s-14.3-17.79-20-27.64c-5.49-9.5-8.63-20.37-15.31-29.08-13.12-17.13-38.59-22.1-58.59-14C48.48,10.77,37,22.72,29.8,36.6,25.45,45,25.06,47.81,28.4,56,31.61,63.8,32.39,71.26,29.38,79.43Z" opacity="0.5" fill="url(#linear-gradient)"/><path d="M164.5,93A52.37,52.37,0,0,0,157,75.56c-6.18-9.55-14.3-17.79-20-27.64-3-5.25-5.35-10.91-7.94-16.39C113.22,29,100.21,24.16,85,16.66,76.68,12.53,67.53,8.72,58.38,7,46,13.45,36.18,24.25,29.8,36.6,25.45,45,25.06,47.81,28.4,56c2.66,6.5,3.64,12.73,2.2,19.33,6.67,8.68,13.6,17.39,17,27.5,3.49,10.29,3.14,21.35,3.76,32.24a103.13,103.13,0,0,1,12.51-5.2c11.66-3.63,24.21-2.5,36.34-1,9.59,1.16,19.34,2.5,28.92,1.79,1.64-2.4,3.35-4.76,5.19-7C143.42,112.48,155.43,104.06,164.5,93Z" opacity="0.2"/><path d="M75.41,20.93c-16.31-5.52-35.32-9.55-49.93-.43A32.71,32.71,0,0,0,11,53.29c4.1,22.38,29.7,34,39.81,54.38,5.42,10.93,6,23.54,8.79,35.41s9.23,24.3,20.81,28.15c13.54,4.49,28.13-4.93,36.17-16.73S128.5,128.55,136,116.4s18.31-21.9,25.54-34.15,10.14-29,1.26-40.08c-8.45-10.57-24.25-12.91-36.94-12.67C107.39,29.83,93,26.87,75.41,20.93Z" fill="url(#linear-gradient-2)"/><path d="M117.34,25.31c4.12.51,8.41.52,12.3-.93S137,19.83,138,15.81,137.09,7,133.22,5.47c-4.65-1.82-9.58,1.32-14.38,2.69a20.69,20.69,0,0,1-14.73-1.34c-2.56-1.26-4.84-3.06-7.46-4.17s-5.86-1.42-8.18.24C75.72,12,112.13,24.66,117.34,25.31Z" fill="url(#linear-gradient-3)"/><path d="M20.09,90.89c4.74,3.72,10.65,5.6,15.74,8.83,4.22,2.68,8,6.47,9.51,11.23s.48,10.56-3.4,13.72S31.38,127.26,28.81,123c-2.14-3.56-1.25-8.59-4.1-11.62-2.52-2.7-6.74-2.53-10.35-3.29A18.67,18.67,0,0,1,0,91.14c-.19-4.27,2.82-15.52,8.65-15.25C13.54,76.11,16.24,87.87,20.09,90.89Z" fill="url(#linear-gradient-4)"/><path d="M140.77,126.17c-.35,4.5.41,9.37-1.86,13.27-2,3.41-6.22,6.27-5.29,10.1.62,2.6,3.71,4.06,6.34,3.57s4.76-2.47,6.24-4.7,2.46-4.75,3.76-7.09c3.35-6,8.73-10.56,12.85-16a22,22,0,0,0,4.49-9.43c.57-3.47-.29-7.31-2.85-9.72C153.67,96,141.42,117.88,140.77,126.17Z" fill="url(#linear-gradient-5)"/><path d="M96.75,146.51c-11.87-2.76-21.9-12-26.2-23.39s-3-24.66,3-35.31c2.26-4,5.16-7.77,6.69-12.14s1.38-9.76-1.92-13c-2.73-2.67-6.81-3.23-10.38-4.58C55.45,53.36,49.49,38.18,51.34,25a47.35,47.35,0,0,1,2.34-9.38c-10-1.24-19.8-.34-28.2,4.9A32.71,32.71,0,0,0,11,53.29c4.1,22.38,29.7,34,39.81,54.38,5.42,10.93,6,23.54,8.79,35.41s9.23,24.3,20.81,28.15c13.54,4.49,28.13-4.93,36.17-16.73a95,95,0,0,0,7.33-13.25A34.65,34.65,0,0,1,96.75,146.51Z" opacity="0.3" fill="url(#linear-gradient-6)" style="mix-blend-mode:screen"/><path d="M171.39,80.31h0a5.1,5.1,0,0,1-3.76,3.76h0a5.13,5.13,0,0,1,3.76,3.77h0a5.16,5.16,0,0,1,3.77-3.77h0a5.13,5.13,0,0,1-3.77-3.76Z" fill="#fff"/><path d="M46.92,147.8h0a5.11,5.11,0,0,1-3.76,3.77h0a5.1,5.1,0,0,1,3.76,3.76h0a5.1,5.1,0,0,1,3.76-3.76h0a5.11,5.11,0,0,1-3.76-3.77Z" fill="#fff"/><path d="M50.68,0h0a5.1,5.1,0,0,1-3.76,3.76h0a5.13,5.13,0,0,1,3.76,3.77h0a5.16,5.16,0,0,1,3.77-3.77h0A5.13,5.13,0,0,1,50.68,0Z" fill="#fff"/><path d="M129.07,153.12h0a5.1,5.1,0,0,1-3.76,3.76h0a5.11,5.11,0,0,1,3.76,3.77h0a5.11,5.11,0,0,1,3.76-3.77h0a5.1,5.1,0,0,1-3.76-3.76Z" fill="#fff"/><path d="M2,67A1.87,1.87,0,1,0,3.9,65.13,1.87,1.87,0,0,0,2,67Z" fill="#fff"/><circle cx="151.57" cy="24.01" r="4.24" fill="#fff"/><path d="M22.18,11.27a.83.83,0,1,0,.83-.83A.83.83,0,0,0,22.18,11.27Z" fill="#fff"/></g></g></g></svg>