<svg xmlns="http://www.w3.org/2000/svg" xmlns:xlink="http://www.w3.org/1999/xlink" viewBox="0 0 203.23 182.33"><defs><linearGradient id="linear-gradient" x1="25.37" y1="89.21" x2="199.46" y2="89.21" gradientUnits="userSpaceOnUse"><stop offset="0" stop-color="#8e54e9"/><stop offset="1" stop-color="#4776e6"/></linearGradient><linearGradient id="linear-gradient-2" x1="39.66" y1="151.6" x2="164.86" y2="26.39" gradientUnits="userSpaceOnUse"><stop offset="0" stop-color="#4776e6"/><stop offset="1" stop-color="#8e54e9"/></linearGradient><linearGradient id="linear-gradient-3" x1="31.75" y1="27.28" x2="87.56" y2="27.28" xlink:href="#linear-gradient-2"/><linearGradient id="linear-gradient-4" x1="150.63" y1="130.78" x2="195.25" y2="130.78" xlink:href="#linear-gradient-2"/><linearGradient id="linear-gradient-5" x1="13.87" y1="135.21" x2="37.4" y2="135.21" xlink:href="#linear-gradient-2"/><linearGradient id="linear-gradient-6" x1="57.03" y1="103.4" x2="183.77" y2="103.4" xlink:href="#linear-gradient-2"/></defs><g style="isolation:isolate"><g id="Layer_2" data-name="Layer 2"><g id="OBJECTS"><path d="M133.54,26.91c-10.47-5-20.95-10.5-32.42-12.28s-24.4.93-31.73,9.93c-8.27,10.15-7.2,24.74-10.86,37.31-5.64,19.35-22.48,33.52-30.08,52.19-2.2,5.4-3.61,11.28-2.89,17.07s3.83,11.47,8.94,14.29c8.18,4.52,18.18.74,27.44-.5,31.51-4.24,60.81,22.37,92.44,19.11,25.29-2.6,46.31-27.1,45-52.5-.75-14.81-7.93-28.43-15-41.49L174.73,52c-2.06-3.84-4.91-12.86-8.51-15.25-3.4-2.26-12.32-1.8-16.6-3.15C145.12,32.15,138,26.91,133.54,26.91Z" opacity="0.5" fill="url(#linear-gradient)"/><path d="M180.31,82a59.89,59.89,0,0,0,3.91-12.41q-4.74-8.82-9.49-17.65c-2.06-3.84-4.91-12.86-8.51-15.25-3.4-2.26-12.32-1.8-16.6-3.15-4.5-1.41-11.61-6.65-16.08-6.65-5.23-2.5-10.46-5.12-15.82-7.34-2.74,3.63-5.3,7.52-9.24,10.34-9.06,6.48-20.06,10.22-30.76,13-5.36,1.38-10.81,2.58-16.24,3.84a126,126,0,0,1-2.95,15.15c-5.64,19.35-22.48,33.52-30.08,52.19a37,37,0,0,0-3.06,14.35c7.46,5.94,15.35,11.73,21.11,19,5.09-.42,10.37-1.85,15.44-2.53,27.61-3.72,53.53,16.25,80.8,19.06a28,28,0,0,0,1.6-2.41c5.47-9.28,5.44-20.69,8.56-31C158.29,112.73,172.79,99.08,180.31,82Z" opacity="0.2"/><path d="M86.22,45.28c-16.12,2-32.83,2.16-47.83,8.41s-28.19,20.85-26.34,37C14.38,111,37.5,121.94,46.69,140.21,52.31,151.37,52.86,165.51,62,174c10.59,9.75,27.22,7.21,41.17,3.64,11.15-2.85,23-6.46,30.1-15.55,6.11-7.86,7.44-18.34,11.51-27.43,7.07-15.73,22-26.54,30.9-41.3,10-16.53,11.3-38.87.44-54.83-8.25-12.14-29.62-23.05-44-15.13C125.94,26.77,122.55,33.49,116,37,106.9,41.88,96.36,44,86.22,45.28Z" fill="url(#linear-gradient-2)"/><path d="M59.21,39.5c5.44-.3,11-.43,16.15-2.17s10-5.41,11.63-10.6A12.8,12.8,0,0,0,71.57,10.48C64,12.42,59.82,20.56,52.92,24.16c-4.21,2.21-9.15,2.57-13.55,4.39s-8.51,6.15-7.45,10.79a6.79,6.79,0,0,0,5.19,5c3.32.65,6.09-1.81,9-2.85C50.32,40,54.84,39.73,59.21,39.5Z" fill="url(#linear-gradient-3)"/><path d="M169,109.54c3-4.41,7.44-8.1,12.7-8.9s11.2,2,13,7-1,10.77-4.73,14.67-8.52,6.74-12.11,10.79c-6,6.72-8.15,16.05-13.66,23.15a13.64,13.64,0,0,1-4.67,4.11,6.55,6.55,0,0,1-6,0c-3.35-2-3.35-6.88-2-10.53,2.49-6.91,8-12.41,10-19.51S164.65,116,169,109.54Z" fill="url(#linear-gradient-4)"/><path d="M25.48,126.17c2.78,2.2,5.84,4.08,8.26,6.67s4.16,6.13,3.53,9.62c-.78,4.32-5.28,7.39-9.67,7.26s-8.41-3-10.71-6.72a23.59,23.59,0,0,1-3-12.65c0-2.91.09-8.85,3.8-9.6C20.83,120.12,23.35,124.49,25.48,126.17Z" fill="url(#linear-gradient-5)"/><path d="M161.92,26a32.34,32.34,0,0,1,4.5,23.78c-3.06,14.37-14.07,25.67-25.58,34.79s-24.25,17.16-33.21,28.81c-6.71,8.73-11,19.06-16.38,28.66s-12.53,18.88-22.64,23.28A27.23,27.23,0,0,1,57,167.51,26.35,26.35,0,0,0,62,174c10.59,9.75,27.22,7.21,41.17,3.64,11.15-2.85,23-6.46,30.1-15.55,6.11-7.86,7.44-18.34,11.51-27.43,7.07-15.73,22-26.54,30.9-41.3,10-16.53,11.3-38.87.44-54.83A42.35,42.35,0,0,0,161.92,26Z" opacity="0.3" fill="url(#linear-gradient-6)" style="mix-blend-mode:screen"/><path d="M141,1.87h0a5.1,5.1,0,0,0,3.76,3.76h0A5.1,5.1,0,0,0,141,9.39h0a5.13,5.13,0,0,0-3.77-3.76h0A5.13,5.13,0,0,0,141,1.87Z" fill="#fff"/><path d="M199.46,81.68h0a5.13,5.13,0,0,0,3.77,3.77h0a5.11,5.11,0,0,0-3.77,3.76h0a5.1,5.1,0,0,0-3.76-3.76h0a5.11,5.11,0,0,0,3.76-3.77Z" fill="#fff"/><path d="M3.76,109.19h0A5.14,5.14,0,0,0,7.53,113h0a5.13,5.13,0,0,0-3.77,3.76h0A5.1,5.1,0,0,0,0,113H0a5.11,5.11,0,0,0,3.76-3.77Z" fill="#fff"/><path d="M38.45,157.29h0a5.11,5.11,0,0,0,3.77,3.76h0a5.14,5.14,0,0,0-3.77,3.77h0a5.13,5.13,0,0,0-3.76-3.77h0a5.1,5.1,0,0,0,3.76-3.76Z" fill="#fff"/><circle cx="19.35" cy="50.6" r="4.47" fill="#fff"/><path d="M97.83,1.87A1.87,1.87,0,1,1,96,0,1.87,1.87,0,0,1,97.83,1.87Z" fill="#fff"/><circle cx="162.05" cy="178.09" r="4.24" fill="#fff"/><path d="M191.61,45.3a.83.83,0,1,1-.83-.83A.83.83,0,0,1,191.61,45.3Z" fill="#fff"/></g></g></g></svg>