<svg width="63" height="46" viewBox="0 0 63 46" fill="none" xmlns="http://www.w3.org/2000/svg">
<g clip-path="url(#clip0_4801_10757)">
<mask id="mask0_4801_10757" style="mask-type:luminance" maskUnits="userSpaceOnUse" x="0" y="0" width="33" height="33">
<path fill-rule="evenodd" clip-rule="evenodd" d="M7.62967 17.8123L0 17.824C0.0420781 19.3954 0.65935 20.9303 1.60385 21.9922L2.57052 22.9753C3.13858 23.4979 4.05115 24.1063 4.89121 24.4745C5.52088 24.7506 7.1732 25.3552 7.94826 25.2619C8.41525 24.5724 9.08212 22.9484 9.52619 22.0631C9.6265 21.9008 10.1867 21.891 10.3903 21.8443C11.6324 21.5617 12.8218 21.0289 13.8227 20.2688C14.9543 19.409 15.8961 18.2666 16.3996 16.7841C16.8388 15.4911 16.7952 14.5373 16.7952 13.1052C17.1021 13.0145 19.7865 13.0824 20.3316 13.0824C20.4274 12.4376 19.9807 10.8902 19.7587 10.36C19.0467 8.66088 17.8009 7.43015 15.8638 7.62926C15.3811 7.67933 15.0121 7.82724 14.6447 8.04267C14.475 8.14045 14.3169 8.25752 14.1736 8.39159C14.0733 8.48376 13.8031 8.76328 13.7318 8.80879L10.6758 2.74047C10.6537 2.68866 10.6204 2.64243 10.5785 2.60507C9.85192 2.15829 8.75 3.59762 8.42126 4.19459C8.15076 4.68499 8.05308 5.0616 7.86035 5.56717L3.46882 1.24615C2.86131 0.500124 2.52694 1.13578 2.28387 1.63149C2.02958 2.14508 1.81712 2.6787 1.64856 3.22708C1.27249 4.43202 1.07262 5.78904 1.07825 7.14114C1.09441 10.9118 2.5059 12.6944 4.39904 14.9844L5.49383 16.0487C5.98937 16.5436 7.08228 17.3803 7.62967 17.8123ZM13.8888 24.561C13.8283 24.748 13.6228 25.106 13.5214 25.2941C13.391 25.5373 13.2922 25.7804 13.1457 26.0148C12.8413 26.4976 12.1688 26.6246 11.7255 26.1752C11.2548 25.6988 11.4295 24.9919 11.8927 24.6998C12.2714 24.4605 13.3617 24.561 13.8888 24.561ZM21.7409 22.3859H23.0348L23.5931 21.2663C24.116 21.404 24.4996 21.5447 25.0959 21.619C26.7455 21.8242 28.2175 21.4153 29.5035 20.5263C29.8176 20.309 30.0089 20.1224 30.2489 19.8713C30.3282 19.7883 30.4176 19.7284 30.4935 19.6377C31.7465 18.1286 31.6292 17.463 32.3851 15.8348C32.3799 15.8287 32.3709 15.8116 32.3682 15.8177L32.2101 15.7039C30.4372 14.7254 28.1848 14.799 26.4149 15.7115C25.6478 16.1067 25.0001 16.6976 24.92 16.7329C24.8449 13.8527 23.5348 14.3916 23.4804 15.0053C23.4623 15.2124 23.5878 15.4805 23.6419 15.677C24.0251 17.0636 23.7294 18.4836 23.1028 19.6897L22.6756 20.5347L21.7409 22.3859ZM24.5143 19.4811C24.5462 19.3172 24.8547 18.8185 24.949 18.6744C25.458 17.8919 26.031 17.3371 26.8515 16.8159C28.0789 16.0377 29.3769 15.9842 30.9199 16.3309C30.9109 16.8425 30.3891 17.7766 30.1685 18.1331C29.1669 19.7579 27.1708 20.7186 25.0527 20.551C25.0977 20.4751 25.9998 19.9062 26.1362 19.8209C26.4367 19.6313 27.0754 19.3328 26.7568 18.7832C26.4266 18.2143 25.972 18.542 25.5922 18.7832C25.236 19.0093 24.855 19.2543 24.5128 19.4811H24.5143ZM14.7086 31.6682C17.1957 31.6488 19.061 31.1049 20.5112 29.2116C21.5651 27.8303 22.2789 26.259 22.5212 24.5527L17.7705 24.5561H17.7104H15.2578C15.067 25.007 14.7747 25.4758 14.5523 25.9306C14.2716 26.5059 14.121 26.8279 13.71 27.1791C13.4917 27.3586 13.2401 27.4922 12.97 27.5721C12.6998 27.6519 12.4166 27.6764 12.1369 27.6441C10.293 27.4215 9.68398 25.0901 10.9305 23.9273C11.2777 23.6018 11.7297 23.3382 12.3928 23.328C13.0886 23.317 13.7949 23.328 14.4918 23.3307C14.6086 23.2681 14.6019 23.2127 14.6552 23.1001C14.9069 22.5657 15.2962 21.9118 15.5689 21.3391L16.6085 19.3241C16.9673 18.6497 17.29 17.9867 17.6514 17.3139C18.0816 16.5148 18.2352 15.9823 18.99 15.6072C20.6529 14.7755 22.4667 16.3411 21.9539 18.1498C21.8254 18.6027 20.7231 20.5772 20.4297 21.1885L19.8244 22.3859H18.4607L20.2148 18.9641C20.5529 18.289 20.9921 17.7486 20.7866 17.196C20.5447 16.5448 19.6753 16.3551 19.2331 16.9259C19.09 17.111 16.9117 21.3793 16.7088 21.7779C16.5668 22.0567 15.9176 23.2135 15.8822 23.4069H23.7989C23.7967 23.6345 23.7894 23.8587 23.7772 24.0797V24.0884C23.7681 24.2462 23.7565 24.4021 23.7422 24.5561H23.7287C23.4747 26.5715 22.6463 28.466 21.3821 30.0502C19.7087 32.1487 17.5255 32.8052 14.6781 32.8227C14.6195 32.8227 14.6488 32.8227 14.5898 32.8227C14.3269 32.8227 14.526 32.8227 14.2622 32.8227C14.2029 32.8227 14.2318 32.8227 14.1736 32.8227C11.3265 32.8052 9.14298 32.1483 7.46962 30.0502C6.60556 28.9722 5.9479 27.7412 5.53027 26.4202H6.79787C7.16797 27.4253 7.68929 28.3668 8.3435 29.2116C9.79406 31.1046 11.6594 31.6492 14.1461 31.6682C14.4862 31.6704 14.3648 31.6704 14.7052 31.6682H14.7086ZM6.31924 12.8215C6.66488 13.1514 6.99549 13.4962 7.33362 13.8235C8.12258 14.5779 8.69627 13.6608 8.3033 13.1431L2.67722 7.58527C2.24592 7.15593 2.27222 7.33154 2.27447 6.79563C2.27447 6.5912 2.27072 5.62748 2.40935 5.44581L7.51884 10.533C7.5519 10.5656 7.59097 10.5921 7.62629 10.6209C7.97193 10.9039 8.49979 10.6714 8.53736 10.2257C8.57493 9.7801 8.08126 9.49679 7.89078 9.27985L2.69939 4.1506C2.77716 3.59762 3.06344 3.07992 3.17427 2.60014C5.6783 5.0654 8.16804 7.57351 10.7025 10.0035C10.9035 10.1969 11.2221 10.6752 11.6962 10.4264C12.0903 10.2193 12.0757 9.74142 11.7657 9.43573L8.88863 6.58248C8.85106 5.64568 9.49426 4.57235 10.0217 3.98827L12.9499 9.67732C13.0923 9.95457 13.1998 10.3263 13.4665 10.4654C13.9497 10.718 14.1585 10.3137 14.2859 10.0991C15.292 8.39235 17.0897 8.37377 18.2022 10.0847C18.4614 10.484 18.8833 11.3556 18.9776 11.9309L15.6489 11.9404C15.4957 13.5747 15.9337 14.6738 15.2131 16.6434C14.7413 17.9329 13.8693 18.8682 12.9589 19.4879C11.9821 20.1558 10.6863 20.6458 9.28687 20.8912C8.9927 20.9424 8.88638 20.903 8.80222 21.0482C8.58582 21.4214 7.55265 23.8029 7.37457 24.0444C6.81478 23.9887 5.78086 23.5859 5.29546 23.3697C3.59731 22.6154 1.80673 21.0296 1.40699 18.9611L9.96463 18.9539C10.1998 18.0873 9.96801 18.008 9.22225 17.5286C7.88402 16.6684 6.81591 15.8719 5.70685 14.7193C5.00805 13.9938 4.26492 13.1328 3.65291 12.1521C3.07283 11.2244 2.48299 9.99022 2.29664 8.86454C2.95749 9.23585 5.37924 11.8103 6.31924 12.8215Z" fill="white"/>
</mask>
<g mask="url(#mask0_4801_10757)">
<path d="M32.3833 0.5H0V32.8229H32.3833V0.5Z" fill="url(#paint0_linear_4801_10757)"/>
</g>
<path d="M57.3312 31.8606L57.6716 29.6661C57.5954 29.6408 57.5171 29.6227 57.4376 29.6119C57.3392 29.5994 57.2396 29.6006 57.1415 29.6153C57.0124 29.6261 56.8879 29.6691 56.7793 29.7405C56.6707 29.8118 56.5814 29.9093 56.5194 30.0241C56.2677 30.4569 56.1271 31.0618 56.3131 31.5575C56.3527 31.6689 56.4204 31.7679 56.5096 31.8446C56.6059 31.922 56.7231 31.9683 56.8458 31.9774C56.9361 31.9884 57.0276 31.982 57.1156 31.9588C57.1917 31.9364 57.2643 31.9034 57.3312 31.8606ZM26.7765 31.8606L27.1169 29.6661C27.0407 29.6409 26.9623 29.6228 26.8828 29.6119C26.7845 29.5994 26.6849 29.6006 26.5868 29.6153C26.4576 29.6261 26.3332 29.6691 26.2246 29.7405C26.116 29.8118 26.0267 29.9093 25.9646 30.0241C25.6806 30.513 25.471 31.4354 25.9549 31.8446C26.0517 31.9224 26.1696 31.9687 26.293 31.9774C26.3833 31.9884 26.4748 31.9821 26.5627 31.9588C26.6386 31.9364 26.7109 31.9034 26.7776 31.8606H26.7765ZM28.0914 30.5468L27.9983 31.1403C27.8668 31.9914 26.7386 32.6119 25.956 32.6119C25.6532 32.6119 25.3976 32.564 25.1892 32.4682C24.9938 32.3827 24.825 32.2453 24.7008 32.0707C24.02 31.0922 24.6632 29.6361 25.7475 29.1882C25.9788 29.094 26.2262 29.0466 26.4756 29.0487C26.5815 29.0487 26.6748 29.0511 26.7555 29.0559C27.1924 29.082 28.0351 28.955 28.371 28.7798C28.2958 29.2421 28.2184 29.7431 28.0933 30.5468H28.0914ZM51.4328 32.4602H48.1642L48.2352 32.0017H49.3248C48.7593 31.7585 48.7593 31.0129 48.9043 30.5919C49.2023 29.7283 50.069 29.1787 51.1007 29.1787C52.5982 29.1787 52.3698 30.7861 51.1168 30.7861C50.6547 30.7861 50.5886 30.4645 50.6716 30.2236C50.7441 30.0128 50.953 29.8216 51.1499 29.8216C51.1771 29.8242 51.2042 29.8283 51.231 29.8337C51.461 29.5216 50.424 29.36 50.069 30.3901C49.9142 30.84 49.865 31.3649 50.0224 31.7293C50.152 32.029 50.5082 32.0017 50.7393 32.0017H51.5015C51.4843 32.153 51.4561 32.3085 51.4328 32.4602ZM62.7533 31.71C62.6955 32.0821 62.8198 32.3202 62.9476 32.4602H59.3626L59.4337 32.0017H61.6165C61.6149 31.9562 61.6163 31.9107 61.6206 31.8655C61.7089 31.2795 61.7675 30.8953 61.8584 30.3105L61.8644 30.2695V30.2623C61.8877 30.1034 61.902 29.9487 61.849 29.8072C61.7637 29.5747 61.42 29.4837 61.1806 29.4837C60.7783 29.4837 60.161 29.6551 59.8124 29.9149L59.9251 29.1879C60.6457 28.9277 62.1526 28.716 62.7003 29.1825C63.0133 29.448 63.034 29.8941 62.9682 30.3204L62.7533 31.71ZM45.3412 31.6087C45.5133 30.5176 45.7631 28.8932 45.9352 27.802L46.0104 27.323L46.0735 26.9236C45.6557 27.0279 45.2094 27.1186 44.742 27.1918C44.8641 27.3435 44.8716 27.4952 44.8359 27.7227C44.6665 28.7999 44.4185 30.4106 44.2487 31.4877L44.2153 31.6982C44.151 32.139 44.4737 32.5235 45.132 32.5235H45.4701C45.2338 32.4052 45.259 32.1568 45.3412 31.608V31.6087ZM30.0533 31.3129C30.2217 30.2392 30.4433 28.7983 30.6007 27.802L30.6759 27.323L30.7394 26.9229C30.3216 27.0272 29.8753 27.1178 29.4079 27.191C29.53 27.3427 29.5375 27.4944 29.5022 27.722C29.341 28.7426 29.1103 30.2426 28.942 31.3137L28.9263 31.4149L28.8804 31.7092C28.8192 32.1033 29.1603 32.3953 29.7171 32.461H33.2201C33.7085 32.461 34.0466 32.2929 34.2721 32.0009C34.3509 32.121 34.4531 32.2236 34.5724 32.3026C34.6918 32.3816 34.8258 32.4352 34.9663 32.4602H41.8683C42.7376 32.4602 43.1355 31.9247 43.2625 31.107L43.7719 27.8312C43.8061 27.6399 43.8773 27.4572 43.9816 27.2938C43.9215 27.3006 44.0053 27.2938 43.8005 27.3131C43.5957 27.3325 43.1111 27.3719 42.7809 27.3848C42.7185 27.5066 42.677 27.6381 42.6584 27.7739L42.5261 28.6277L42.1681 30.9279L42.1595 30.9833L42.1508 31.0387C42.0685 31.5697 41.5719 31.9971 41.0568 31.9971H40.8186C40.3163 31.5041 40.3741 30.7311 39.7666 30.0067C38.948 29.0335 37.2002 29.0604 36.2764 29.5975L36.1483 30.4064C36.6634 29.9915 36.9775 29.7139 37.6511 29.682C39.0787 29.6142 39.1088 31.7013 39.5916 31.9899H35.1208C34.8953 31.9865 34.6323 31.8382 34.467 31.6687L34.4813 31.6338C34.6068 31.3546 34.7691 30.1353 34.8315 29.7325C34.875 29.4337 35.0289 29.1627 35.2624 28.9739H34.0831C34.0568 28.9963 33.8201 29.1791 33.7329 29.5743V29.5626L33.716 29.6737L33.512 30.981L33.5034 31.0364C33.4211 31.5674 32.9248 31.9948 32.4097 31.9948H30.6357C30.4606 31.9948 30.2664 31.9717 30.1394 31.8598C30.0934 31.8207 30.0582 31.7704 30.037 31.7136C30.0159 31.6568 30.0094 31.5955 30.0184 31.5355L30.0533 31.3129ZM53.8985 31.6087C54.0706 30.5176 54.3204 28.8932 54.4925 27.802L54.5676 27.323L54.6307 26.9236C54.213 27.0279 53.7666 27.1186 53.2993 27.1918C53.4214 27.3435 53.4289 27.4952 53.3932 27.7227C53.2234 28.7999 52.9758 30.4106 52.806 31.4877L52.7729 31.6982C52.7083 32.139 53.031 32.5235 53.6892 32.5235H54.0274C53.7911 32.4052 53.8162 32.1568 53.8985 31.608V31.6087ZM32.9 32.9081C33.184 32.9081 33.3779 33.1433 33.3328 33.4334C33.2877 33.7235 33.021 33.9587 32.737 33.9587C32.4529 33.9587 32.2591 33.7235 32.3041 33.4334C32.3492 33.1433 32.616 32.9081 32.9 32.9081ZM31.7083 32.9081C31.9923 32.9081 32.1858 33.1433 32.1411 33.4334C32.0964 33.7235 31.8293 33.9587 31.5452 33.9587C31.2612 33.9587 31.0674 33.7235 31.1124 33.4334C31.1575 33.1433 31.4243 32.9081 31.7087 32.9081H31.7083ZM27.8262 27.4538C28.1102 27.4538 28.3041 27.689 28.259 27.9791C28.2139 28.2693 27.9472 28.5044 27.6632 28.5044C27.3791 28.5044 27.1853 28.2693 27.2304 27.9791C27.2754 27.689 27.5422 27.4538 27.8262 27.4538ZM26.6345 27.4538C26.9185 27.4538 27.1124 27.689 27.0673 27.9791C27.0222 28.2693 26.7555 28.5044 26.4714 28.5044C26.1874 28.5044 25.9936 28.2693 26.0386 27.9791C26.0837 27.689 26.3505 27.4538 26.6345 27.4538ZM58.6064 30.8054L58.2186 33.2756C58.1758 33.551 58.0736 33.8039 57.8493 33.9909H56.6847C56.9093 33.8109 57.0599 33.5532 57.1073 33.2677L57.2542 32.3506L57.3113 31.9823L57.1062 32.4776C57.0211 32.5161 56.9331 32.5481 56.8432 32.5732C56.7342 32.6007 56.622 32.6134 56.5096 32.6111C56.2068 32.6111 55.9511 32.5632 55.7424 32.4674C55.547 32.3819 55.3783 32.2445 55.254 32.0699C54.8468 31.484 54.9388 30.7785 55.2488 30.1827C55.3635 29.9591 55.5143 29.7563 55.6951 29.5827C55.8711 29.4146 56.0764 29.281 56.3007 29.1886C56.532 29.0944 56.7794 29.047 57.0288 29.049C57.1348 29.049 57.2281 29.0514 57.3087 29.0562C57.7456 29.0824 58.5883 28.9554 58.9223 28.7801C58.8506 29.2421 58.733 30.0021 58.6086 30.8058L58.6064 30.8054Z" fill="#24211E"/>
</g>
<defs>
<linearGradient id="paint0_linear_4801_10757" x1="3.78703" y1="3.76286" x2="22.3942" y2="22.7483" gradientUnits="userSpaceOnUse">
<stop stop-color="#5D2481"/>
<stop offset="1" stop-color="#00A9C6"/>
</linearGradient>
<clipPath id="clip0_4801_10757">
<rect width="63" height="45" fill="white" transform="translate(0 0.5)"/>
</clipPath>
</defs>
</svg>
