<svg xmlns="http://www.w3.org/2000/svg" width="16" height="16" viewBox="0 0 16 16" role="img" class="icon ">
<path fill-rule="evenodd" clip-rule="evenodd" d="M7.99997 0C12.4179 0 15.9999 3.58206 15.9999 8C15.9999 11.9938 13.0749 15.3036 9.24988 15.9032V10.313H11.114L11.4684 8L11.4684 8L9.24988 8V6.49923C9.24988 6.31267 9.27682 6.12738 9.34035 5.95886C9.46533 5.62736 9.73181 5.36105 10.2125 5.27706C10.3161 5.25896 10.4296 5.24933 10.5538 5.24933C10.5538 5.24933 10.5538 5.24933 10.5538 5.24933H11.5629V3.28055C11.5629 3.28055 11.5629 3.28055 11.5629 3.28055C11.5629 3.28055 10.6471 3.12418 9.77189 3.12418C9.77188 3.12418 9.77188 3.12417 9.77187 3.12417C9.70943 3.12417 9.64772 3.12547 9.58678 3.12805C7.99515 3.19538 6.92259 4.13904 6.7691 5.811C6.7565 5.94817 6.75008 6.09022 6.75008 6.2371V8H4.71831V10.313L4.71833 10.313L6.75008 10.313V15.9032C2.92504 15.3025 0 11.9927 0 8C0 3.58206 3.58204 0 7.99997 0Z"></path>
</svg>